<?xml version="1.0" encoding="UTF-8" standalone="no"?> <svg width="64" height="64" viewBox="0 0 64 64" fill="none" xmlns="http://www.w3.org/2000/svg">
<path d="M56.85 37.011C56.5878 36.9737 56.3215 37.0413 56.1088 37.1991C55.8961 37.3569 55.7543 37.5923 55.714 37.854C55.0259 42.4525 53.1169 46.7823 50.186 50.3919C47.2551 54.0015 43.4095 56.7588 39.0502 58.3763C34.6909 59.9939 29.9776 60.4124 25.4015 59.5883C20.8254 58.7642 16.5541 56.7277 13.033 53.691C12.9341 53.6016 12.8184 53.5329 12.6926 53.4889C12.5668 53.4449 12.4334 53.4265 12.3004 53.4347C12.1674 53.443 12.0374 53.4777 11.918 53.537C11.7986 53.5962 11.6922 53.6787 11.6052 53.7796C11.5181 53.8805 11.4521 53.9978 11.411 54.1246C11.37 54.2514 11.3546 54.3852 11.366 54.518C11.3773 54.6508 11.4151 54.78 11.4771 54.8979C11.5391 55.0159 11.6241 55.1203 11.727 55.205C15.5192 58.4757 20.1194 60.6691 25.0479 61.5566C29.9764 62.4441 35.0528 61.9931 39.7477 60.2507C44.4425 58.5083 48.584 55.5383 51.7402 51.6503C54.8964 47.7623 56.9518 43.0988 57.692 38.146C57.7307 37.8839 57.6637 37.6171 57.5058 37.4043C57.348 37.1915 57.1121 37.05 56.85 37.011V37.011Z" fill="black"/>
<path d="M3.99999 34C4.00818 27.2806 6.61485 20.8246 11.2745 15.9832C15.9342 11.1418 22.2857 8.29018 29 8.02504V15C29 15.2653 29.1053 15.5196 29.2929 15.7071C29.4804 15.8947 29.7348 16 30 16C32.0093 16.0041 34.0037 16.3455 35.9 17.01C36.1503 17.0963 36.4246 17.0798 36.6627 16.9642C36.9009 16.8486 37.0834 16.6432 37.1704 16.3931C37.2574 16.1431 37.2416 15.8688 37.1266 15.6303C37.0117 15.3918 36.8068 15.2087 36.557 15.121C34.7658 14.4946 32.8948 14.1256 31 14.025V4.01704C36.6245 4.19352 42.0842 5.95819 46.748 9.10704C46.9232 9.22503 47.1312 9.28451 47.3423 9.27697C47.5534 9.26942 47.7567 9.19524 47.923 9.06504C48.799 8.37286 49.8835 7.9975 51 8.00004C52.3256 8.00163 53.5964 8.52892 54.5338 9.46626C55.4711 10.4036 55.9984 11.6744 56 13C56.0025 14.1165 55.6272 15.201 54.935 16.077C54.8046 16.2435 54.7302 16.4469 54.7227 16.6582C54.7152 16.8695 54.7748 17.0778 54.893 17.253C55.8104 18.6257 56.6131 20.0716 57.293 21.576C57.3475 21.6955 57.425 21.8031 57.5211 21.8927C57.6172 21.9822 57.7299 22.052 57.853 22.098C57.976 22.1439 58.1069 22.1652 58.2382 22.1606C58.3694 22.156 58.4985 22.1255 58.618 22.071C58.7375 22.0165 58.8451 21.939 58.9346 21.843C59.0242 21.7469 59.0939 21.6341 59.1399 21.5111C59.1859 21.388 59.2072 21.2571 59.2025 21.1259C59.1979 20.9946 59.1675 20.8655 59.113 20.746C58.4804 19.3517 57.7503 18.0037 56.928 16.712C57.6308 15.6017 58.0027 14.3141 58 13C57.9979 11.1442 57.2597 9.36493 55.9474 8.05263C54.6351 6.74034 52.8559 6.00216 51 6.00004C49.6865 5.99588 48.399 6.36674 47.289 7.06904C42.1342 3.75021 36.1308 1.99007 30 2.00004C29.7348 2.00004 29.4804 2.1054 29.2929 2.29294C29.1053 2.48047 29 2.73483 29 3.00004V6.02504C23.7274 6.21083 18.6147 7.88324 14.2516 10.8494C9.88843 13.8155 6.45261 17.9546 4.34035 22.7892C2.22809 27.6238 1.52544 32.9569 2.31344 38.1736C3.10144 43.3903 5.34799 48.278 8.79399 52.273C8.96717 52.4739 9.21308 52.5978 9.4776 52.6174C9.74212 52.637 10.0036 52.5507 10.2045 52.3775C10.4054 52.2044 10.5293 51.9585 10.5489 51.6939C10.5685 51.4294 10.4822 51.1679 10.309 50.967C6.24025 46.2504 4.00129 40.2291 3.99999 34V34Z" fill="black"/>
<path d="M60.594 24.6C60.5579 24.4718 60.4965 24.352 60.4135 24.2478C60.3305 24.1436 60.2275 24.0571 60.1106 23.9932C59.9937 23.9294 59.8652 23.8896 59.7326 23.8761C59.6001 23.8626 59.4662 23.8757 59.3388 23.9147C59.2114 23.9537 59.0931 24.0177 58.9908 24.103C58.8885 24.1884 58.8043 24.2933 58.7431 24.4116C58.6819 24.53 58.645 24.6593 58.6345 24.7921C58.624 24.9249 58.6401 25.0585 58.682 25.185C59.4594 27.721 59.8969 30.3489 59.983 33H49.976C49.8211 29.7355 48.8628 26.5597 47.1862 23.7543C45.5097 20.949 43.1667 18.6007 40.365 16.918C40.1384 16.7802 39.8663 16.7381 39.6086 16.8009C39.3509 16.8637 39.1288 17.0264 38.991 17.253C38.8532 17.4796 38.8111 17.7517 38.8739 18.0094C38.9367 18.267 39.0994 18.4892 39.326 18.627C41.9784 20.2198 44.1721 22.4737 45.6925 25.1684C47.2129 27.863 48.008 30.906 48 34C48 34.2652 48.1053 34.5196 48.2929 34.7071C48.4804 34.8946 48.7348 35 49 35H61C61.2652 35 61.5196 34.8946 61.7071 34.7071C61.8946 34.5196 62 34.2652 62 34C62.0019 30.8141 61.528 27.6459 60.594 24.6Z" fill="black"/>
<path d="M54 13C54 12.4067 53.8241 11.8266 53.4944 11.3333C53.1648 10.8399 52.6962 10.4554 52.148 10.2284C51.5999 10.0013 50.9967 9.94189 50.4147 10.0576C49.8328 10.1734 49.2982 10.4591 48.8787 10.8787C48.4591 11.2982 48.1734 11.8328 48.0576 12.4147C47.9419 12.9967 48.0013 13.5999 48.2284 14.1481C48.4554 14.6962 48.8399 15.1648 49.3333 15.4944C49.8266 15.8241 50.4067 16 51 16C51.7957 16 52.5587 15.6839 53.1213 15.1213C53.6839 14.5587 54 13.7957 54 13ZM50 13C50 12.8022 50.0586 12.6089 50.1685 12.4444C50.2784 12.28 50.4346 12.1518 50.6173 12.0761C50.8 12.0004 51.0011 11.9806 51.1951 12.0192C51.3891 12.0578 51.5673 12.153 51.7071 12.2929C51.847 12.4327 51.9422 12.6109 51.9808 12.8049C52.0194 12.9989 51.9996 13.2 51.9239 13.3827C51.8482 13.5654 51.72 13.7216 51.5556 13.8315C51.3911 13.9414 51.1978 14 51 14C50.7348 14 50.4804 13.8946 50.2929 13.7071C50.1054 13.5196 50 13.2652 50 13Z" fill="black"/>
<path d="M30 18C26.494 17.9946 23.0852 19.1516 20.307 21.29C20.0961 21.451 19.9579 21.6892 19.9226 21.9521C19.8873 22.215 19.958 22.4812 20.119 22.692C20.2799 22.9029 20.5181 23.0411 20.781 23.0764C21.0439 23.1116 21.3101 23.041 21.521 22.88C23.9509 21.0086 26.9329 19.9957 30 20C32.7689 20 35.4757 20.8211 37.7779 22.3594C40.0802 23.8978 41.8746 26.0843 42.9343 28.6425C43.9939 31.2006 44.2711 34.0156 43.731 36.7313C43.1908 39.447 41.8574 41.9416 39.8995 43.8995C37.9415 45.8574 35.447 47.1908 32.7312 47.731C30.0155 48.2712 27.2006 47.994 24.6424 46.9343C22.0842 45.8747 19.8977 44.0803 18.3594 41.778C16.821 39.4757 16 36.769 16 34C15.9951 30.9328 17.008 27.9507 18.88 25.521C18.9597 25.4166 19.0182 25.2975 19.0519 25.1705C19.0857 25.0436 19.0941 24.9112 19.0767 24.7809C19.0593 24.6507 19.0164 24.5252 18.9505 24.4115C18.8845 24.2979 18.7969 24.1983 18.6925 24.1185C18.5881 24.0387 18.469 23.9803 18.342 23.9466C18.215 23.9128 18.0826 23.9044 17.9524 23.9218C17.8221 23.9392 17.6966 23.9821 17.583 24.048C17.4693 24.114 17.3697 24.2016 17.29 24.306C15.1513 27.0845 13.9943 30.4937 14 34C14 37.1645 14.9383 40.258 16.6964 42.8891C18.4545 45.5203 20.9534 47.5711 23.877 48.7821C26.8006 49.9931 30.0177 50.3099 33.1214 49.6926C36.2251 49.0752 39.076 47.5514 41.3137 45.3137C43.5513 43.0761 45.0752 40.2252 45.6925 37.1215C46.3099 34.0178 45.993 30.8007 44.782 27.8771C43.571 24.9535 41.5203 22.4546 38.8891 20.6965C36.2579 18.9384 33.1645 18 30 18Z" fill="black"/>
<path d="M25 34C25 35.3261 25.5268 36.5979 26.4645 37.5355C27.4021 38.4732 28.6739 39 30 39C31.3261 39 32.5979 38.4732 33.5355 37.5355C34.4732 36.5979 35 35.3261 35 34C34.996 33.5678 34.9348 33.1381 34.818 32.722C34.7882 32.5912 34.7324 32.4678 34.6539 32.3591C34.5754 32.2503 34.4758 32.1584 34.3611 32.089C34.2463 32.0195 34.1188 31.9738 33.9861 31.9546C33.8533 31.9354 33.7181 31.9431 33.5884 31.9773C33.4587 32.0114 33.3372 32.0713 33.2311 32.1534C33.125 32.2355 33.0365 32.3381 32.9709 32.455C32.9053 32.572 32.8639 32.701 32.8491 32.8343C32.8343 32.9676 32.8465 33.1025 32.885 33.231C33.0439 33.8354 33.0097 34.4744 32.7869 35.0583C32.5642 35.6422 32.1643 36.1417 31.6432 36.4867C31.1221 36.8317 30.5061 37.0049 29.8816 36.982C29.2571 36.959 28.6554 36.7411 28.1611 36.3588C27.6667 35.9765 27.3045 35.4491 27.1252 34.8504C26.9459 34.2517 26.9585 33.612 27.1614 33.0209C27.3642 32.4298 27.7471 31.917 28.2562 31.5546C28.7653 31.1921 29.3751 30.9982 30 31C30.2596 31.0045 30.5175 31.0432 30.767 31.115C30.8948 31.1514 31.0286 31.1619 31.1605 31.1461C31.2924 31.1302 31.4198 31.0881 31.5353 31.0224C31.6508 30.9567 31.7521 30.8687 31.8332 30.7634C31.9142 30.6581 31.9735 30.5377 32.0075 30.4093C32.0416 30.2808 32.0496 30.1469 32.0313 30.0153C32.013 29.8837 31.9686 29.757 31.9008 29.6428C31.8329 29.5285 31.743 29.4289 31.6363 29.3498C31.5295 29.2707 31.4081 29.2136 31.279 29.182C30.8625 29.0652 30.4325 29.004 30 29C28.6744 29.0016 27.4036 29.5289 26.4662 30.4662C25.5289 31.4036 25.0016 32.6744 25 34V34Z" fill="black"/>
<path d="M33 25C33 24.4067 32.8241 23.8266 32.4944 23.3333C32.1648 22.8399 31.6962 22.4554 31.1481 22.2284C30.5999 22.0013 29.9967 21.9419 29.4147 22.0576C28.8328 22.1734 28.2982 22.4591 27.8787 22.8787C27.4591 23.2982 27.1734 23.8328 27.0576 24.4147C26.9419 24.9967 27.0013 25.5999 27.2284 26.1481C27.4554 26.6962 27.8399 27.1648 28.3333 27.4944C28.8266 27.8241 29.4067 28 30 28C30.7957 28 31.5587 27.6839 32.1213 27.1213C32.6839 26.5587 33 25.7957 33 25V25ZM29 25C29 24.8022 29.0586 24.6089 29.1685 24.4444C29.2784 24.28 29.4346 24.1518 29.6173 24.0761C29.8 24.0004 30.0011 23.9806 30.1951 24.0192C30.3891 24.0578 30.5673 24.153 30.7071 24.2929C30.847 24.4327 30.9422 24.6109 30.9808 24.8049C31.0194 24.9989 30.9996 25.2 30.9239 25.3827C30.8482 25.5654 30.72 25.7216 30.5556 25.8315C30.3911 25.9414 30.1978 26 30 26C29.7348 26 29.4804 25.8946 29.2929 25.7071C29.1054 25.5196 29 25.2652 29 25Z" fill="black"/>
<path d="M30 42C30.2652 42 30.5196 42.1054 30.7071 42.2929C30.8946 42.4804 31 42.7348 31 43C31 43.2652 31.1054 43.5196 31.2929 43.7071C31.4804 43.8946 31.7348 44 32 44C32.2652 44 32.5196 43.8946 32.7071 43.7071C32.8946 43.5196 33 43.2652 33 43C33 42.4067 32.8241 41.8266 32.4944 41.3333C32.1648 40.8399 31.6962 40.4554 31.1481 40.2284C30.5999 40.0013 29.9967 39.9419 29.4147 40.0576C28.8328 40.1734 28.2982 40.4591 27.8787 40.8787C27.4591 41.2982 27.1734 41.8328 27.0576 42.4147C26.9419 42.9967 27.0013 43.5999 27.2284 44.148C27.4554 44.6962 27.8399 45.1648 28.3333 45.4944C28.8266 45.8241 29.4067 46 30 46C30.2652 46 30.5196 45.8946 30.7071 45.7071C30.8946 45.5196 31 45.2652 31 45C31 44.7348 30.8946 44.4804 30.7071 44.2929C30.5196 44.1054 30.2652 44 30 44C29.7348 44 29.4804 43.8946 29.2929 43.7071C29.1054 43.5196 29 43.2652 29 43C29 42.7348 29.1054 42.4804 29.2929 42.2929C29.4804 42.1054 29.7348 42 30 42Z" fill="black"/>
<path d="M39 37C39.5933 37 40.1734 36.8241 40.6667 36.4944C41.1601 36.1648 41.5446 35.6962 41.7716 35.148C41.9987 34.5999 42.0581 33.9967 41.9424 33.4147C41.8266 32.8328 41.5409 32.2982 41.1213 31.8787C40.7018 31.4591 40.1672 31.1734 39.5853 31.0576C39.0033 30.9419 38.4001 31.0013 37.852 31.2284C37.3038 31.4554 36.8352 31.8399 36.5056 32.3333C36.1759 32.8266 36 33.4067 36 34C36 34.7957 36.3161 35.5587 36.8787 36.1213C37.4413 36.6839 38.2044 37 39 37ZM39 33C39.1978 33 39.3911 33.0586 39.5556 33.1685C39.72 33.2784 39.8482 33.4346 39.9239 33.6173C39.9996 33.8 40.0194 34.0011 39.9808 34.1951C39.9422 34.3891 39.847 34.5673 39.7071 34.7071C39.5673 34.847 39.3891 34.9422 39.1951 34.9808C39.0011 35.0194 38.8 34.9996 38.6173 34.9239C38.4346 34.8482 38.2784 34.72 38.1685 34.5556C38.0586 34.3911 38 34.1978 38 34C38 33.7348 38.1054 33.4804 38.2929 33.2929C38.4804 33.1054 38.7348 33 39 33Z" fill="black"/>
<path d="M18 34C18 34.5933 18.1759 35.1734 18.5056 35.6667C18.8352 36.1601 19.3038 36.5446 19.8519 36.7716C20.4001 36.9987 21.0033 37.0581 21.5853 36.9424C22.1672 36.8266 22.7018 36.5409 23.1213 36.1213C23.5409 35.7018 23.8266 35.1672 23.9424 34.5853C24.0581 34.0033 23.9987 33.4001 23.7716 32.852C23.5446 32.3038 23.1601 31.8352 22.6667 31.5056C22.1734 31.1759 21.5933 31 21 31C20.2044 31 19.4413 31.3161 18.8787 31.8787C18.3161 32.4413 18 33.2044 18 34V34ZM22 34C22 34.1978 21.9414 34.3911 21.8315 34.5556C21.7216 34.72 21.5654 34.8482 21.3827 34.9239C21.2 34.9996 20.9989 35.0194 20.8049 34.9808C20.6109 34.9422 20.4327 34.847 20.2929 34.7071C20.153 34.5673 20.0578 34.3891 20.0192 34.1951C19.9806 34.0011 20.0004 33.8 20.0761 33.6173C20.1518 33.4346 20.28 33.2784 20.4444 33.1685C20.6089 33.0586 20.8022 33 21 33C21.2652 33 21.5196 33.1054 21.7071 33.2929C21.8946 33.4804 22 33.7348 22 34Z" fill="black"/>
<path d="M34 10C34 10.5933 34.1759 11.1734 34.5056 11.6667C34.8352 12.1601 35.3038 12.5446 35.852 12.7716C36.4001 12.9987 37.0033 13.0581 37.5853 12.9424C38.1672 12.8266 38.7018 12.5409 39.1213 12.1213C39.5409 11.7018 39.8266 11.1672 39.9424 10.5853C40.0581 10.0033 39.9987 9.40013 39.7716 8.85195C39.5446 8.30377 39.1601 7.83524 38.6667 7.50559C38.1734 7.17595 37.5933 7 37 7C36.2044 7 35.4413 7.31607 34.8787 7.87868C34.3161 8.44129 34 9.20435 34 10ZM38 10C38 10.1978 37.9414 10.3911 37.8315 10.5556C37.7216 10.72 37.5654 10.8482 37.3827 10.9239C37.2 10.9996 36.9989 11.0194 36.8049 10.9808C36.6109 10.9422 36.4327 10.847 36.2929 10.7071C36.153 10.5673 36.0578 10.3891 36.0192 10.1951C35.9806 10.0011 36.0004 9.80004 36.0761 9.61732C36.1518 9.43459 36.28 9.27841 36.4444 9.16853C36.6089 9.05865 36.8022 9 37 9C37.2652 9 37.5196 9.10536 37.7071 9.29289C37.8946 9.48043 38 9.73478 38 10Z" fill="black"/>
<path d="M54 31C54.5933 31 55.1734 30.8241 55.6667 30.4944C56.1601 30.1648 56.5446 29.6962 56.7716 29.1481C56.9987 28.5999 57.0581 27.9967 56.9424 27.4147C56.8266 26.8328 56.5409 26.2982 56.1213 25.8787C55.7018 25.4591 55.1672 25.1734 54.5853 25.0576C54.0033 24.9419 53.4001 25.0013 52.852 25.2284C52.3038 25.4554 51.8352 25.8399 51.5056 26.3333C51.1759 26.8266 51 27.4067 51 28C51 28.7957 51.3161 29.5587 51.8787 30.1213C52.4413 30.6839 53.2044 31 54 31V31ZM54 27C54.1978 27 54.3911 27.0586 54.5556 27.1685C54.72 27.2784 54.8482 27.4346 54.9239 27.6173C54.9996 27.8 55.0194 28.0011 54.9808 28.1951C54.9422 28.3891 54.847 28.5673 54.7071 28.7071C54.5673 28.847 54.3891 28.9422 54.1951 28.9808C54.0011 29.0194 53.8 28.9996 53.6173 28.9239C53.4346 28.8482 53.2784 28.72 53.1685 28.5556C53.0586 28.3911 53 28.1978 53 28C53 27.7348 53.1054 27.4804 53.2929 27.2929C53.4804 27.1054 53.7348 27 54 27Z" fill="black"/>
<path d="M42.553 12.383C42.4394 12.3135 42.3131 12.2673 42.1814 12.2472C42.0497 12.2272 41.9154 12.2336 41.7862 12.2662C41.6571 12.2988 41.5357 12.3568 41.4293 12.4369C41.3229 12.517 41.2336 12.6176 41.1665 12.7327C41.0995 12.8478 41.0562 12.9752 41.0391 13.1072C41.0219 13.2393 41.0314 13.3735 41.0668 13.5019C41.1022 13.6303 41.163 13.7503 41.2454 13.8549C41.3279 13.9595 41.4304 14.0466 41.547 14.111C45.0953 16.1766 48.0293 19.1503 50.047 22.726C50.1773 22.957 50.3941 23.1268 50.6496 23.198C50.7762 23.2332 50.9084 23.2432 51.0388 23.2273C51.1691 23.2115 51.2951 23.1701 51.4095 23.1055C51.5239 23.041 51.6244 22.9545 51.7054 22.8511C51.7864 22.7477 51.8462 22.6294 51.8814 22.5029C51.9167 22.3764 51.9266 22.2441 51.9108 22.1138C51.8949 21.9834 51.8535 21.8574 51.789 21.743C49.5968 17.8577 46.4087 14.6268 42.553 12.383V12.383Z" fill="black"/>
<path d="M7 35C7.55228 35 8 34.5523 8 34C8 33.4477 7.55228 33 7 33C6.44772 33 6 33.4477 6 34C6 34.5523 6.44772 35 7 35Z" fill="black"/>
<path d="M11 35C11.5523 35 12 34.5523 12 34C12 33.4477 11.5523 33 11 33C10.4477 33 10 33.4477 10 34C10 34.5523 10.4477 35 11 35Z" fill="black"/>
<path d="M30 54C30.5523 54 31 53.5523 31 53C31 52.4477 30.5523 52 30 52C29.4477 52 29 52.4477 29 53C29 53.5523 29.4477 54 30 54Z" fill="black"/>
<path d="M30 58C30.5523 58 31 57.5523 31 57C31 56.4477 30.5523 56 30 56C29.4477 56 29 56.4477 29 57C29 57.5523 29.4477 58 30 58Z" fill="black"/>
<path d="M42.728 46.7281C42.5881 46.8679 42.4928 47.0461 42.4542 47.2401C42.4156 47.4341 42.4354 47.6352 42.5111 47.8179C42.5868 48.0007 42.7149 48.1569 42.8794 48.2668C43.0439 48.3766 43.2372 48.4353 43.435 48.4353C43.6328 48.4353 43.8261 48.3766 43.9906 48.2668C44.1551 48.1569 44.2832 48.0007 44.3589 47.8179C44.4346 47.6352 44.4544 47.4341 44.4158 47.2401C44.3772 47.0461 44.2819 46.8679 44.142 46.7281C43.9545 46.5406 43.7002 46.4353 43.435 46.4353C43.1698 46.4353 42.9155 46.5406 42.728 46.7281V46.7281Z" fill="black"/>
<path d="M45.556 49.556C45.4162 49.6959 45.3211 49.8741 45.2826 50.068C45.2441 50.262 45.264 50.463 45.3397 50.6456C45.4154 50.8283 45.5436 50.9844 45.708 51.0942C45.8725 51.2041 46.0658 51.2627 46.2635 51.2627C46.4612 51.2627 46.6545 51.2041 46.8189 51.0942C46.9834 50.9844 47.1115 50.8283 47.1873 50.6456C47.263 50.463 47.2828 50.262 47.2444 50.068C47.2059 49.8741 47.1107 49.6959 46.971 49.556C46.8781 49.463 46.7678 49.3892 46.6464 49.3389C46.525 49.2886 46.3949 49.2627 46.2635 49.2627C46.1321 49.2627 46.0019 49.2886 45.8805 49.3389C45.7591 49.3892 45.6489 49.463 45.556 49.556V49.556Z" fill="black"/>
<path d="M14.444 18.444C14.5838 18.3041 14.6789 18.1259 14.7174 17.932C14.7559 17.738 14.736 17.537 14.6603 17.3544C14.5846 17.1717 14.4564 17.0156 14.292 16.9058C14.1275 16.7959 13.9342 16.7373 13.7365 16.7373C13.5388 16.7373 13.3455 16.7959 13.1811 16.9058C13.0166 17.0156 12.8885 17.1717 12.8127 17.3544C12.737 17.537 12.7172 17.738 12.7556 17.932C12.7941 18.1259 12.8893 18.3041 13.029 18.444C13.1219 18.537 13.2322 18.6108 13.3536 18.6611C13.475 18.7114 13.6051 18.7373 13.7365 18.7373C13.8679 18.7373 13.9981 18.7114 14.1195 18.6611C14.2408 18.6108 14.3511 18.537 14.444 18.444Z" fill="black"/>
<path d="M17.272 21.272C17.4119 21.1322 17.5072 20.954 17.5458 20.76C17.5844 20.566 17.5646 20.3649 17.4889 20.1822C17.4132 19.9995 17.2851 19.8433 17.1206 19.7334C16.9561 19.6235 16.7628 19.5648 16.565 19.5648C16.3672 19.5648 16.1739 19.6235 16.0094 19.7334C15.8449 19.8433 15.7168 19.9995 15.6411 20.1822C15.5654 20.3649 15.5456 20.566 15.5842 20.76C15.6228 20.954 15.7181 21.1322 15.858 21.272C16.0455 21.4595 16.2998 21.5648 16.565 21.5648C16.8302 21.5648 17.0845 21.4595 17.272 21.272V21.272Z" fill="black"/>
<path d="M15.858 46.7281C15.7181 46.8679 15.6228 47.0461 15.5842 47.2401C15.5456 47.4341 15.5654 47.6352 15.6411 47.8179C15.7168 48.0007 15.8449 48.1569 16.0094 48.2668C16.1739 48.3766 16.3672 48.4353 16.565 48.4353C16.7628 48.4353 16.9561 48.3766 17.1206 48.2668C17.2851 48.1569 17.4132 48.0007 17.4889 47.8179C17.5646 47.6352 17.5844 47.4341 17.5458 47.2401C17.5072 47.0461 17.4119 46.8679 17.272 46.7281C17.0845 46.5406 16.8302 46.4353 16.565 46.4353C16.2998 46.4353 16.0455 46.5406 15.858 46.7281V46.7281Z" fill="black"/>
<path d="M14.444 50.971C14.5838 50.8311 14.6789 50.6529 14.7174 50.459C14.7559 50.265 14.736 50.064 14.6603 49.8813C14.5846 49.6987 14.4564 49.5426 14.292 49.4327C14.1275 49.3229 13.9342 49.2643 13.7365 49.2643C13.5388 49.2643 13.3455 49.3229 13.1811 49.4327C13.0166 49.5426 12.8885 49.6987 12.8127 49.8813C12.737 50.064 12.7172 50.265 12.7556 50.459C12.7941 50.6529 12.8893 50.8311 13.029 50.971C13.1219 51.064 13.2322 51.1377 13.3536 51.1881C13.475 51.2384 13.6051 51.2643 13.7365 51.2643C13.8679 51.2643 13.9981 51.2384 14.1195 51.1881C14.2408 51.1377 14.3511 51.064 14.444 50.971V50.971Z" fill="black"/>
<path d="M9.13302 43.7261C9.31582 43.6505 9.47211 43.5225 9.58213 43.3581C9.69215 43.1937 9.75095 43.0004 9.7511 42.8026C9.75125 42.6048 9.69274 42.4114 9.58297 42.2469C9.47319 42.0824 9.3171 41.9541 9.13441 41.8783C8.95172 41.8024 8.75065 41.7825 8.55664 41.821C8.36262 41.8594 8.18436 41.9546 8.04442 42.0943C7.90447 42.2341 7.80912 42.4123 7.77042 42.6062C7.73173 42.8002 7.75142 43.0013 7.82702 43.1841C7.92836 43.4291 8.12288 43.6239 8.36779 43.7255C8.6127 43.8271 8.88795 43.8274 9.13302 43.7261Z" fill="black"/>
<path d="M11.522 41.654C11.5976 41.8367 11.7258 41.9928 11.8902 42.1027C12.0546 42.2126 12.2479 42.2712 12.4456 42.2712C12.6434 42.2713 12.8367 42.2127 13.0011 42.1029C13.1656 41.9931 13.2938 41.837 13.3695 41.6543C13.4453 41.4716 13.4652 41.2706 13.4267 41.0767C13.3882 40.8827 13.2931 40.7045 13.1534 40.5646C13.0136 40.4247 12.8356 40.3293 12.6417 40.2906C12.4478 40.2519 12.2467 40.2715 12.064 40.347C11.9425 40.3972 11.8321 40.4708 11.7392 40.5637C11.6462 40.6565 11.5724 40.7668 11.5221 40.8882C11.4717 41.0096 11.4458 41.1397 11.4458 41.2711C11.4458 41.4025 11.4717 41.5326 11.522 41.654V41.654Z" fill="black"/>
<path d="M38.2 51.1711C38.1242 50.9884 37.996 50.8323 37.8315 50.7225C37.667 50.6127 37.4737 50.5541 37.2759 50.5542C37.0782 50.5543 36.8849 50.613 36.7205 50.7229C36.5561 50.8328 36.428 50.989 36.3523 51.1717C36.2767 51.3545 36.2569 51.5555 36.2956 51.7495C36.3342 51.9434 36.4294 52.1216 36.5693 52.2614C36.7091 52.4012 36.8873 52.4964 37.0813 52.535C37.2753 52.5736 37.4763 52.5538 37.659 52.4781C37.7804 52.4278 37.8906 52.3541 37.9835 52.2612C38.0764 52.1683 38.15 52.058 38.2003 51.9367C38.2505 51.8153 38.2764 51.6852 38.2763 51.5538C38.2763 51.4225 38.2503 51.2924 38.2 51.1711Z" fill="black"/>
<path d="M39.184 56.1731C39.3668 56.0975 39.523 55.9693 39.633 55.8049C39.7429 55.6404 39.8017 55.4471 39.8017 55.2493C39.8017 55.0514 39.7431 54.8581 39.6332 54.6936C39.5234 54.5291 39.3672 54.4009 39.1844 54.3252C39.0016 54.2494 38.8005 54.2296 38.6065 54.2683C38.4125 54.3069 38.2343 54.4021 38.0945 54.5421C37.9546 54.682 37.8594 54.8602 37.8209 55.0542C37.7823 55.2482 37.8022 55.4493 37.878 55.6321C37.9795 55.8769 38.1741 56.0715 38.419 56.1729C38.6639 56.2743 38.939 56.2744 39.184 56.1731V56.1731Z" fill="black"/>
<path d="M20.816 11.827C20.6332 11.9027 20.4769 12.0308 20.367 12.1952C20.257 12.3597 20.1983 12.553 20.1982 12.7509C20.1982 12.9487 20.2568 13.1421 20.3667 13.3066C20.4766 13.4711 20.6328 13.5993 20.8155 13.675C20.9983 13.7507 21.1994 13.7705 21.3934 13.7319C21.5874 13.6933 21.7656 13.598 21.9055 13.4581C22.0453 13.3182 22.1405 13.1399 22.1791 12.9459C22.2176 12.7519 22.1977 12.5508 22.122 12.368C22.0204 12.1232 21.8258 11.9287 21.5809 11.8272C21.3361 11.7258 21.0609 11.7257 20.816 11.827Z" fill="black"/>
<path d="M21.805 16.829C21.8808 17.0117 22.009 17.1678 22.1735 17.2776C22.338 17.3874 22.5313 17.446 22.7291 17.4459C22.9268 17.4459 23.1201 17.3871 23.2845 17.2772C23.4489 17.1673 23.577 17.0111 23.6527 16.8284C23.7283 16.6457 23.7481 16.4446 23.7094 16.2506C23.6708 16.0567 23.5756 15.8785 23.4357 15.7387C23.2959 15.5989 23.1177 15.5037 22.9237 15.4651C22.7298 15.4266 22.5287 15.4464 22.346 15.522C22.2246 15.5723 22.1144 15.646 22.0215 15.7389C21.9286 15.8318 21.855 15.9421 21.8047 16.0635C21.7545 16.1848 21.7287 16.3149 21.7287 16.4463C21.7287 16.5776 21.7547 16.7077 21.805 16.829V16.829Z" fill="black"/>
<path d="M48.478 41.6541C48.5537 41.4714 48.5735 41.2703 48.5349 41.0763C48.4964 40.8824 48.4012 40.7042 48.2613 40.5643C48.1215 40.4245 47.9434 40.3292 47.7494 40.2906C47.5555 40.252 47.3544 40.2718 47.1717 40.3474C46.989 40.423 46.8328 40.5511 46.7228 40.7155C46.6129 40.8799 46.5542 41.0732 46.5541 41.271C46.5541 41.4688 46.6126 41.6621 46.7224 41.8266C46.8322 41.9911 46.9883 42.1193 47.171 42.1951C47.2924 42.2454 47.4224 42.2713 47.5538 42.2714C47.6851 42.2714 47.8152 42.2456 47.9366 42.1953C48.058 42.1451 48.1683 42.0714 48.2612 41.9786C48.354 41.8857 48.4277 41.7754 48.478 41.6541V41.6541Z" fill="black"/>
<path d="M52.173 43.1841C52.2486 43.0013 52.2683 42.8002 52.2296 42.6062C52.1909 42.4123 52.0955 42.2341 51.9556 42.0943C51.8156 41.9546 51.6374 41.8594 51.4434 41.821C51.2493 41.7825 51.0483 41.8024 50.8656 41.8783C50.6829 41.9541 50.5268 42.0824 50.417 42.2469C50.3073 42.4114 50.2488 42.6048 50.2489 42.8026C50.2491 43.0004 50.3079 43.1937 50.4179 43.3581C50.5279 43.5225 50.6842 43.6505 50.867 43.7261C51.112 43.8274 51.3873 43.8271 51.6322 43.7255C51.8771 43.6239 52.0716 43.4291 52.173 43.1841Z" fill="black"/>
<path d="M9.133 24.274C8.95025 24.1985 8.74921 24.1789 8.5553 24.2176C8.36139 24.2563 8.18332 24.3517 8.04359 24.4916C7.90386 24.6315 7.80874 24.8097 7.77027 25.0037C7.7318 25.1976 7.75169 25.3986 7.82744 25.5813C7.90318 25.764 8.03138 25.9201 8.19582 26.0299C8.36027 26.1397 8.55358 26.1983 8.75131 26.1982C8.94905 26.1982 9.14234 26.1396 9.30675 26.0297C9.47117 25.9198 9.59931 25.7637 9.675 25.581C9.7253 25.4596 9.75118 25.3295 9.75116 25.1981C9.75114 25.0667 9.72522 24.9366 9.67488 24.8152C9.62455 24.6938 9.55078 24.5835 9.4578 24.4907C9.36482 24.3978 9.25445 24.3242 9.133 24.274V24.274Z" fill="black"/>
<path d="M11.522 26.3461C11.4463 26.5288 11.4265 26.7298 11.4651 26.9238C11.5036 27.1177 11.5988 27.2959 11.7387 27.4358C11.8785 27.5756 12.0566 27.6709 12.2506 27.7095C12.4445 27.7481 12.6456 27.7284 12.8283 27.6527C13.011 27.5771 13.1672 27.449 13.2772 27.2846C13.3871 27.1202 13.4458 26.9269 13.4459 26.7291C13.4459 26.5314 13.3874 26.338 13.2776 26.1735C13.1678 26.0091 13.0117 25.8808 12.829 25.8051C12.7077 25.7547 12.5776 25.7288 12.4462 25.7288C12.3149 25.7287 12.1848 25.7545 12.0634 25.8048C11.942 25.855 11.8317 25.9287 11.7388 26.0216C11.6459 26.1144 11.5723 26.2247 11.522 26.3461Z" fill="black"/>
<path d="M23.653 51.936C23.7285 51.7533 23.7481 51.5523 23.7094 51.3583C23.6707 51.1644 23.5753 50.9864 23.4354 50.8466C23.2955 50.7069 23.1173 50.6118 22.9233 50.5733C22.7294 50.5348 22.5284 50.5547 22.3457 50.6305C22.163 50.7062 22.0069 50.8344 21.8971 50.9989C21.7873 51.1633 21.7287 51.3566 21.7288 51.5544C21.7288 51.7521 21.7874 51.9454 21.8973 52.1098C22.0072 52.2742 22.1633 52.4024 22.346 52.478C22.4674 52.5283 22.5975 52.5542 22.7289 52.5542C22.8603 52.5542 22.9904 52.5283 23.1118 52.4779C23.2332 52.4276 23.3435 52.3538 23.4363 52.2608C23.5292 52.1679 23.6028 52.0575 23.653 51.936Z" fill="black"/>
<path d="M21.581 54.325C21.3983 54.2493 21.1972 54.2295 21.0033 54.2681C20.8093 54.3067 20.6311 54.4019 20.4913 54.5417C20.3514 54.6815 20.2562 54.8597 20.2176 55.0536C20.1789 55.2476 20.1987 55.4486 20.2743 55.6314C20.35 55.8141 20.4781 55.9703 20.6425 56.0802C20.8069 56.1901 21.0002 56.2488 21.1979 56.2489C21.3957 56.249 21.589 56.1904 21.7535 56.0806C21.918 55.9708 22.0462 55.8147 22.122 55.632C22.1723 55.5107 22.1983 55.3806 22.1983 55.2493C22.1984 55.1179 22.1725 54.9878 22.1223 54.8664C22.072 54.7451 21.9984 54.6348 21.9055 54.5419C21.8126 54.449 21.7024 54.3753 21.581 54.325V54.325Z" fill="black"/>
<path d="M37.778 27.636C37.9179 27.4962 38.0131 27.318 38.0517 27.124C38.0904 26.93 38.0706 26.729 37.9949 26.5462C37.9192 26.3635 37.791 26.2073 37.6266 26.0974C37.4621 25.9875 37.2688 25.9288 37.071 25.9288C36.8732 25.9288 36.6798 25.9875 36.5154 26.0974C36.3509 26.2073 36.2228 26.3635 36.1471 26.5462C36.0714 26.729 36.0516 26.93 36.0902 27.124C36.1288 27.318 36.2241 27.4962 36.364 27.636C36.5515 27.8235 36.8058 27.9288 37.071 27.9288C37.3361 27.9288 37.5905 27.8235 37.778 27.636V27.636Z" fill="black"/>
<path d="M22.222 40.3641C22.0821 40.5039 21.9869 40.6821 21.9483 40.8761C21.9096 41.0701 21.9294 41.2712 22.0051 41.4539C22.0808 41.6366 22.209 41.7928 22.3734 41.9027C22.5379 42.0126 22.7312 42.0713 22.929 42.0713C23.1268 42.0713 23.3202 42.0126 23.4846 41.9027C23.6491 41.7928 23.7772 41.6366 23.8529 41.4539C23.9286 41.2712 23.9484 41.0701 23.9098 40.8761C23.8712 40.6821 23.7759 40.5039 23.636 40.3641C23.4485 40.1766 23.1942 40.0713 22.929 40.0713C22.6639 40.0713 22.4095 40.1766 22.222 40.3641V40.3641Z" fill="black"/>
<path d="M36.364 40.3641C36.2241 40.5039 36.1288 40.6821 36.0902 40.8761C36.0516 41.0701 36.0714 41.2712 36.1471 41.4539C36.2228 41.6366 36.3509 41.7928 36.5154 41.9027C36.6798 42.0126 36.8732 42.0713 37.071 42.0713C37.2688 42.0713 37.4621 42.0126 37.6266 41.9027C37.791 41.7928 37.9192 41.6366 37.9949 41.4539C38.0706 41.2712 38.0904 41.0701 38.0517 40.8761C38.0131 40.6821 37.9179 40.5039 37.778 40.3641C37.5905 40.1766 37.3361 40.0713 37.071 40.0713C36.8058 40.0713 36.5515 40.1766 36.364 40.3641V40.3641Z" fill="black"/>
<path d="M23.636 27.636C23.7759 27.4962 23.8712 27.318 23.9098 27.124C23.9484 26.93 23.9286 26.729 23.8529 26.5462C23.7772 26.3635 23.6491 26.2073 23.4846 26.0974C23.3202 25.9875 23.1268 25.9288 22.929 25.9288C22.7312 25.9288 22.5379 25.9875 22.3734 26.0974C22.209 26.2073 22.0808 26.3635 22.0051 26.5462C21.9294 26.729 21.9096 26.93 21.9483 27.124C21.9869 27.318 22.0821 27.4962 22.222 27.636C22.4095 27.8235 22.6639 27.9288 22.929 27.9288C23.1942 27.9288 23.4485 27.8235 23.636 27.636Z" fill="black"/>
</svg>
