<?xml version="1.0" encoding="UTF-8" standalone="no"?> <svg xmlns="http://www.w3.org/2000/svg" viewBox="0 0 64 64"><title>1</title><g id="Layer_3" data-name="Layer 3"><path d="M11.44,47.15c2.76,0,4.93-3,4.93-6.87S14.2,33.4,11.44,33.4s-4.93,3-4.93,6.88S8.67,47.15,11.44,47.15Zm0-11.75c1.59,0,2.93,2.23,2.93,4.88S13,45.15,11.44,45.15s-2.93-2.23-2.93-4.87S9.85,35.4,11.44,35.4Z"/><path d="M59.12,32.64c-1.59-2.85-4-4.48-6.56-4.48H41.7L27.9,13.56a3.5,3.5,0,0,0-2.82-1.86,9.83,9.83,0,0,0-4.44.4c-3.56,1.1-5.76,3.49-5.11,5.57a2.51,2.51,0,0,0,.35.7h0l0,.05,6.49,9.72h-11C6.79,28.15,3,33.59,3,40.28S6.79,52.4,11.44,52.4H52.56c2.58,0,5-1.63,6.56-4.48A15.46,15.46,0,0,0,61,40.28,15.45,15.45,0,0,0,59.12,32.64ZM21.22,14a8.89,8.89,0,0,1,2.57-.41,5.57,5.57,0,0,1,.94.07c.73.13,1.25.41,1.35.73s-.17.85-.7,1.37a7.92,7.92,0,0,1-3.09,1.7,8,8,0,0,1-3.51.34c-.73-.13-1.25-.41-1.35-.73C17.22,16.39,18.62,14.81,21.22,14Zm-2,5.84c.16,0,.31,0,.47,0a10.19,10.19,0,0,0,1.9-.19l3.83,4.45-2-5a10.76,10.76,0,0,0,2-.94l7.81,8L26.9,17.07a5.08,5.08,0,0,0,.71-.9l11.33,12H24.8ZM5,40.28c0-5.57,2.88-10.11,6.42-10.12h.08c3.52.05,6.38,4.57,6.38,10.12S15,50.35,11.5,50.4h-.08C7.88,50.39,5,45.85,5,40.28ZM52.56,50.4H16.07a10,10,0,0,0,1.29-1.5l.11,0,21.28-1L18.47,47a14.65,14.65,0,0,0,.84-2.36l11.56-1-11.17-1a17.27,17.27,0,0,0,.17-2.38,16.6,16.6,0,0,0-.75-5l6.44-.91-7.1-1h-.08a11.08,11.08,0,0,0-2.31-3.25H52.56c1.83,0,3.59,1.26,4.82,3.47a11.31,11.31,0,0,1,.81,1.83l-16.06.95,16.58,1a14,14,0,0,1,.09,5.28l-13.06,1,12.63.92a11.72,11.72,0,0,1-1,2.38h0l-7.84,1,6.5.83A4.9,4.9,0,0,1,52.56,50.4Z"/><path d="M40,39.75A23.5,23.5,0,0,0,44.22,39,23.49,23.49,0,0,0,40,38.18,40.26,40.26,0,0,0,35.72,38a40.92,40.92,0,0,0-4.25.22,23.76,23.76,0,0,0-4.25.78,23.76,23.76,0,0,0,4.25.78,40.92,40.92,0,0,0,4.25.22A40.22,40.22,0,0,0,40,39.75Z"/><path d="M49.09,44.88c-1.9-.15-3.8-.22-5.7-.22s-3.8.07-5.7.22a41.28,41.28,0,0,0-5.7.78,41.3,41.3,0,0,0,5.7.78c1.9.15,3.8.22,5.7.22s3.8-.08,5.7-.22a41.76,41.76,0,0,0,5.7-.78A41.76,41.76,0,0,0,49.09,44.88Z"/><path d="M40.5,33.62A27.76,27.76,0,0,0,44,33.4a16.91,16.91,0,0,0,3.5-.79,16.92,16.92,0,0,0-3.5-.79,27.76,27.76,0,0,0-3.5-.21,28.25,28.25,0,0,0-3.5.22,17.15,17.15,0,0,0-3.5.78,17.14,17.14,0,0,0,3.5.78A28.25,28.25,0,0,0,40.5,33.62Z"/><path d="M21.49,16.85a1,1,0,0,0,.39-.08l.24-.1a1,1,0,0,0-.79-1.84l-.24.1a1,1,0,0,0,.39,1.92Z"/></g></svg>