<?xml version="1.0" encoding="UTF-8"?>
<!DOCTYPE svg PUBLIC "-//W3C//DTD SVG 1.1//EN" "http://www.w3.org/Graphics/SVG/1.1/DTD/svg11.dtd">
<!-- Creator: CorelDRAW -->
<svg xmlns="http://www.w3.org/2000/svg" xml:space="preserve" width="7.11111in" height="7.11111in" version="1.1" style="shape-rendering:geometricPrecision; text-rendering:geometricPrecision; image-rendering:optimizeQuality; fill-rule:evenodd; clip-rule:evenodd"
viewBox="0 0 7111 7111"
 xmlns:xlink="http://www.w3.org/1999/xlink">
 <defs>
  <style type="text/css">
   <![CDATA[
    .fil0 {fill:black}
   ]]>
  </style>
 </defs>
 <g id="Layer_x0020_1">
  <metadata id="CorelCorpID_0Corel-Layer"/>
  <g id="_353024352">
   <g>
    <g>
     <path class="fil0" d="M6870 3708l-6628 0c-65,0 -117,-53 -117,-117l0 -2826c0,-64 52,-116 117,-116l6628 0c64,0 116,52 116,116l0 2826c0,64 -52,117 -116,117zm-6512 -233l6395 0 0 -2593 -6395 0 0 2593z"/>
    </g>
    <g>
     <path class="fil0" d="M6442 3280l-5773 0c-64,0 -116,-52 -116,-117l0 -1970c0,-64 52,-117 116,-117l5773 0c64,0 116,53 116,117l0 1970c0,65 -52,117 -116,117zm-5656 -233l5539 0 0 -1738 -5539 0 0 1738z"/>
    </g>
    <g>
     <g>
      <path class="fil0" d="M1301 3280c-65,0 -117,-52 -117,-117l0 -1970c0,-64 52,-117 117,-117 64,0 116,53 116,117l0 1970c0,65 -52,117 -116,117z"/>
     </g>
     <g>
      <path class="fil0" d="M1945 3280c-65,0 -117,-52 -117,-117l0 -1970c0,-64 52,-117 117,-117 64,0 116,53 116,117l0 1970c0,65 -52,117 -116,117z"/>
     </g>
     <g>
      <path class="fil0" d="M2589 3280c-64,0 -116,-52 -116,-117l0 -1970c0,-64 52,-117 116,-117 64,0 117,53 117,117l0 1970c0,65 -53,117 -117,117z"/>
     </g>
     <g>
      <path class="fil0" d="M3233 3280c-64,0 -116,-52 -116,-117l0 -1970c0,-64 52,-117 116,-117 65,0 117,53 117,117l0 1970c0,65 -52,117 -117,117z"/>
     </g>
     <g>
      <path class="fil0" d="M3878 3280c-65,0 -117,-52 -117,-117l0 -1970c0,-64 52,-117 117,-117 64,0 116,53 116,117l0 1970c0,65 -52,117 -116,117z"/>
     </g>
     <g>
      <path class="fil0" d="M4522 3280c-64,0 -117,-52 -117,-117l0 -1970c0,-64 53,-117 117,-117 64,0 117,53 117,117l0 1970c-1,65 -53,117 -117,117z"/>
     </g>
     <g>
      <path class="fil0" d="M5166 3280c-64,0 -116,-52 -116,-117l0 -1970c0,-64 52,-117 116,-117 65,0 117,53 117,117l0 1970c0,65 -52,117 -117,117z"/>
     </g>
     <g>
      <path class="fil0" d="M5811 3280c-65,0 -117,-52 -117,-117l0 -1970c0,-64 52,-117 117,-117 64,0 116,53 116,117l0 1970c0,65 -52,117 -116,117z"/>
     </g>
    </g>
    <g>
     <path class="fil0" d="M6442 2295l-5773 0c-64,0 -116,-52 -116,-117 0,-64 52,-116 116,-116l5773 0c64,0 116,52 116,116 0,65 -52,117 -116,117z"/>
    </g>
    <g>
     <path class="fil0" d="M4450 4323l-1789 0c-64,0 -116,-53 -116,-117l0 -615c0,-64 52,-116 116,-116l1789 0c64,0 117,52 117,116l0 615c0,64 -53,117 -117,117zm-1672 -233l1556 0 0 -382 -1556 0 0 382z"/>
    </g>
    <g>
     <path class="fil0" d="M4964 4968l-2817 0c-64,0 -117,-52 -117,-117l0 -645c0,-64 53,-116 117,-116l2817 0c64,0 117,52 117,116l0 645c0,65 -53,117 -117,117zm-2701 -233l2585 0 0 -412 -2585 0 0 412z"/>
    </g>
    <g>
     <path class="fil0" d="M5355 6140l-4686 0c-64,0 -116,-52 -116,-117l0 -2432c0,-64 52,-116 116,-116 65,0 117,52 117,116l0 2316 4569 0c64,0 116,52 116,116 0,65 -52,117 -116,117z"/>
    </g>
    <g>
     <path class="fil0" d="M6136 6462l-781 0c-65,0 -117,-52 -117,-116l0 -645c0,-65 52,-117 117,-117l781 0c65,0 117,52 117,117l0 645c0,64 -52,116 -117,116zm-665 -233l549 0 0 -412 -549 0 0 412z"/>
    </g>
   </g>
  </g>
 </g>
</svg>
