<?xml version="1.0" encoding="UTF-8"?>
<!DOCTYPE svg PUBLIC "-//W3C//DTD SVG 1.1//EN" "http://www.w3.org/Graphics/SVG/1.1/DTD/svg11.dtd">
<!-- Creator: CorelDRAW -->
<svg xmlns="http://www.w3.org/2000/svg" xml:space="preserve" width="512px" height="512px" version="1.1" style="shape-rendering:geometricPrecision; text-rendering:geometricPrecision; image-rendering:optimizeQuality; fill-rule:evenodd; clip-rule:evenodd"
viewBox="0 0 512 512"
 xmlns:xlink="http://www.w3.org/1999/xlink">
 <defs>
  <style type="text/css">
   <![CDATA[
    .fil0 {fill:black}
   ]]>
  </style>
 </defs>
 <g id="Layer_x0020_1">
  <metadata id="CorelCorpID_0Corel-Layer"/>
  <g id="_328173248">
   <g>
    <g>
     <path class="fil0" d="M420 482c-30,0 -55,-25 -55,-55l0 -2c0,-4 3,-7 8,-7 4,0 7,3 7,7l0 2c0,22 18,40 40,40 22,0 40,-18 40,-40l0 -2c0,-4 4,-7 8,-7 4,0 7,3 7,7l0 2c0,30 -25,55 -55,55zm47 -75c-4,0 -7,-4 -7,-8l0 -135c0,-1 0,-1 0,-1l0 -1c0,-2 0,-4 0,-6 0,-22 -18,-40 -40,-40l-76 0c-4,0 -7,-3 -7,-7 0,-5 3,-8 7,-8l76 0c30,0 55,25 55,55 0,2 0,5 0,7l0 1 0 135c0,4 -4,8 -8,8zm-95 0c-4,0 -7,-4 -7,-8l0 -88 -21 0c-4,0 -7,-3 -7,-8 0,-4 3,-7 7,-7l28 0c4,0 8,3 8,7l0 96c0,4 -4,8 -8,8zm-54 -96l-123 0c-4,0 -7,-3 -7,-8 0,-4 3,-7 7,-7l123 0c4,0 8,3 8,7 0,5 -4,8 -8,8zm-149 0l-77 0c-30,0 -54,-25 -54,-55 0,-2 0,-5 0,-8l0 -136c0,-4 4,-7 8,-7 4,0 7,4 7,7l0 137c0,0 0,0 0,0 0,2 0,5 0,7 0,22 18,40 40,40l77 0c4,0 7,4 7,8 0,4 -4,7 -8,7zm149 -95l-123 0c-4,0 -7,-3 -7,-7 0,-5 3,-8 7,-8l123 0c4,0 8,4 8,8 0,4 -4,7 -8,7zm-149 0l-28 0c-4,0 -8,-3 -8,-7l0 -97c0,-4 4,-7 8,-7 4,0 7,4 7,7l0 89 22 0c4,0 7,4 7,8 0,4 -4,7 -8,7zm-28 -122c-4,0 -8,-4 -8,-8l0 -1c0,-22 -18,-40 -40,-40 -22,0 -40,18 -40,40l0 1c0,4 -3,8 -8,8 -4,0 -7,-4 -7,-8l0 -1c0,-30 24,-55 54,-55 31,0 55,25 55,55l0 1c1,4 -3,8 -6,8z"/>
    </g>
    <g>
     <path class="fil0" d="M492 433l-145 0c-11,0 -20,-9 -20,-20 0,-11 9,-20 20,-20l145 0c11,0 20,9 20,20 0,11 -9,20 -20,20zm-145 -26c-3,0 -6,3 -6,5 0,3 3,6 6,6l145 0c3,0 5,-3 5,-6 0,-3 -2,-5 -5,-5l-145 0z"/>
    </g>
    <g>
     <path class="fil0" d="M331 349c-11,0 -20,-9 -20,-20l0 -145c0,-12 9,-21 20,-21 11,0 20,9 20,21l0 144c1,12 -8,21 -20,21zm0 -171c-3,0 -5,2 -5,6l0 144c0,4 2,6 5,6 3,0 6,-3 6,-6l0 -144c0,-3 -3,-6 -6,-6z"/>
    </g>
    <g>
     <path class="fil0" d="M182 349c-11,0 -20,-9 -20,-20l0 -145c0,-12 10,-21 20,-21 12,0 21,9 21,21l0 144c0,12 -9,21 -21,21zm0 -171c-3,0 -5,3 -5,6l0 144c0,3 2,6 5,6 4,0 6,-3 6,-6l0 -144c0,-3 -3,-6 -6,-6z"/>
    </g>
    <g>
     <path class="fil0" d="M165 120l-145 0c-11,0 -20,-9 -20,-20 0,-11 9,-20 20,-20l145 0c12,0 20,9 20,20 1,11 -8,20 -20,20zm-144 -26c-3,0 -6,3 -6,6 0,2 3,5 6,5l145 0c3,0 5,-3 5,-5 0,-4 -2,-6 -5,-6l-145 0z"/>
    </g>
   </g>
  </g>
 </g>
</svg>
