<?xml version="1.0" encoding="UTF-8" standalone="no"?> <svg width="64" height="64" viewBox="0 0 64 64" fill="none" xmlns="http://www.w3.org/2000/svg">
<path d="M60.8 52.3C59.5 51 57.5 50.8 55.9 51.7L53.7 49.5C53.9 49.3 54 49 54 48.7L53.8 46.1C53.4 40.7 51.1 35.6 47.3 31.8C45.2 29.7 42.5 28.6 39.5 28.6C36.5 28.6 33.8 29.7 31.7 31.8C27.4 36.1 27.4 43.1 31.7 47.4C35.5 51.2 40.6 53.5 46 53.9L48.6 54.1C48.6 54.1 48.6 54.1 48.7 54.1C49 54.1 49.2 54 49.4 53.8L51.6 56C50.7 57.5 50.9 59.5 52.2 60.9C53 61.7 54 62.1 55 62.1C56 62.1 57.1 61.7 57.8 60.9C58.3 60.4 58.7 59.8 58.8 59.1C59.5 58.9 60.1 58.6 60.6 58.1C61.4 57.3 61.8 56.3 61.8 55.3C61.8 54.3 61.6 53.1 60.8 52.3ZM39.6 35.4C39.2 35.8 38.6 35.8 38.2 35.4C37.8 35 37.8 34.4 38.2 34C38.6 33.6 39.2 33.6 39.6 34C40 34.3 40 35 39.6 35.4ZM41.7 38.9C41.3 39.3 40.7 39.3 40.3 38.9C39.9 38.5 39.9 37.9 40.3 37.5C40.7 37.1 41.3 37.1 41.7 37.5C42.1 37.9 42.1 38.5 41.7 38.9ZM43.9 35.4C43.5 35.8 42.9 35.8 42.5 35.4C42.1 35 42.1 34.4 42.5 34C42.9 33.6 43.5 33.6 43.9 34C44.2 34.3 44.2 35 43.9 35.4ZM59.4 56.6C59 57 58.4 57.2 58.1 57.2C57.6 57.2 57.2 57.6 57.2 58.1C57.2 58.5 57.1 59 56.6 59.4C55.8 60.2 54.5 60.2 53.8 59.4C53 58.6 53 57.4 53.8 56.6C54.2 56.2 54.2 55.6 53.8 55.2L51 52.4L52.4 51L55.2 53.8C55.6 54.2 56.2 54.2 56.6 53.8C57.4 53 58.6 53 59.4 53.8C59.8 54.2 60 54.7 60 55.2C60 55.7 59.8 56.2 59.4 56.6Z" fill="black"/>
<path d="M11.9 31.8C12.1 31.1 12.1 30.4 11.9 29.7L14.6 28.1C14.7 28.3 15 28.5 15.3 28.6L17.9 29.1C19.3 29.4 20.8 29.5 22.2 29.5C26.1 29.5 29.9 28.5 33.3 26.5C38.6 23.5 40.4 16.7 37.3 11.5C35.8 9 33.5 7.1 30.6 6.4C27.8 5.6 24.8 6 22.3 7.5C17.6 10.2 14.1 14.5 12.3 19.6L11.5 22.1C11.4 22.4 11.4 22.7 11.6 22.9L8.89998 24.5C7.69998 23.2 5.69998 22.9 3.99998 23.8C2.09998 24.9 1.39998 27.4 2.49998 29.3C2.89998 29.9 3.39998 30.4 3.99998 30.8C3.99998 31.5 4.19998 32.2 4.49998 32.8C5.19998 34.1 6.59998 34.8 7.99998 34.8C8.69998 34.8 9.39998 34.6 9.99998 34.3C10.9 33.7 11.6 32.8 11.9 31.8ZM29.2 11.5C29.7 11.2 30.3 11.4 30.6 11.9C30.9 12.4 30.7 13 30.2 13.3C29.7 13.6 29.1 13.4 28.8 12.9C28.6 12.4 28.8 11.8 29.2 11.5ZM27.7 14.8C28 15.3 27.8 15.9 27.3 16.2C26.8 16.5 26.2 16.3 25.9 15.8C25.6 15.3 25.8 14.7 26.3 14.4C26.8 14.1 27.4 14.3 27.7 14.8ZM25.2 10.4C25.7 10.1 26.3 10.3 26.6 10.8C26.9 11.3 26.7 11.9 26.2 12.2C25.7 12.5 25.1 12.3 24.8 11.8C24.5 11.3 24.7 10.7 25.2 10.4ZM9.59998 29C9.49998 29.3 9.59998 29.5 9.69998 29.8C9.99998 30.3 9.99998 30.8 9.89998 31.3C9.79998 31.8 9.39998 32.2 8.99998 32.5C7.99998 33.1 6.79998 32.7 6.29998 31.8C5.99998 31.3 5.99998 30.8 6.09998 30.3C6.19998 29.8 5.89998 29.3 5.39998 29.1C5.09998 29 4.59998 28.7 4.29998 28.2C3.69998 27.2 4.09998 26 4.99998 25.5C5.89998 25 7.19998 25.3 7.69998 26.2C7.99998 26.7 8.59998 26.8 9.09998 26.6L12.6 24.6L13.6 26.3L10.1 28.3C9.89998 28.5 9.69998 28.7 9.59998 29Z" fill="black"/>
<path d="M42.4 13.3C43.3 13.9 44.4 14 45.5 13.6L46 13.4V14.6C46 16.4 47.5 17.9 49.3 17.9H51.6L50.5 21.2C50.1 22.4 50.4 23.7 51.3 24.6L52.4 25.7L51.6 26.2C50.6 26.8 50 27.8 50 28.9C50 30 50.5 31.1 51.5 31.7C51.7 31.8 51.9 31.9 52.1 31.9C52.4 31.9 52.7 31.7 52.9 31.5C53.2 31 53.1 30.4 52.6 30.1C52.2 29.9 52 29.5 52 29C52 28.5 52.2 28.2 52.6 27.9L54.5 26.8C54.8 26.6 54.9 26.4 55 26.1C55.1 25.8 54.9 25.5 54.7 25.3L52.7 23.3C52.4 23 52.2 22.5 52.4 22L54 17.3C54.1 17 54.1 16.7 53.9 16.4C53.6 16.2 53.3 16 53 16H49.3C48.6 16 48 15.4 48 14.7V12C48 11.7 47.8 11.4 47.6 11.2C47.3 11 47 11 46.7 11.1L44.8 11.8C44.4 12 44 11.9 43.6 11.7C43.2 11.5 43 11.1 43 10.6V10C43 9.4 42.6 9 42 9C41.4 9 41 9.4 41 10V10.6C41 11.7 41.5 12.7 42.4 13.3Z" fill="black"/>
<path d="M30.6 50.8C30.3 49.8 29.5 49 28.4 48.6C27.4 48.3 26.2 48.5 25.4 49.2L25 49.6L24.6 48.4C24.3 47.6 23.8 46.9 23 46.5C22.2 46.1 21.3 46 20.5 46.3L18.3 47L18.4 43.5C18.4 42.2 17.7 41.1 16.6 40.5L15.2 39.8L15.8 39.1C16.6 38.3 16.8 37.1 16.5 36C16.2 34.9 15.4 34.1 14.3 33.8C13.8 33.6 13.2 34 13.1 34.5C12.9 35 13.3 35.6 13.8 35.7C14.2 35.8 14.5 36.1 14.7 36.6C14.8 37 14.7 37.5 14.4 37.8L12.9 39.5C12.7 39.7 12.6 40 12.7 40.3C12.8 40.6 12.9 40.9 13.2 41L15.7 42.3C16.1 42.5 16.4 43 16.4 43.5L16.3 48.4C16.3 48.7 16.4 49 16.7 49.2C17 49.4 17.3 49.4 17.6 49.4L21.1 48.3C21.4 48.2 21.8 48.2 22.1 48.4C22.4 48.6 22.6 48.8 22.7 49.2L23.5 51.8C23.6 52.1 23.8 52.4 24.2 52.5C24.5 52.6 24.9 52.5 25.1 52.3L26.7 51C27 50.7 27.5 50.6 27.9 50.8C28.3 50.9 28.6 51.2 28.8 51.6L29 52.2C29.1 52.6 29.5 52.9 30 52.9C30.1 52.9 30.2 52.9 30.3 52.9C30.8 52.7 31.1 52.2 31 51.6L30.6 50.8Z" fill="black"/>
<path d="M49.6 7.90001C49.7 8.00001 49.8 8.00001 50 8.00001C50.4 8.00001 50.7 7.80001 50.9 7.40001L51.9 5.40001C52.1 4.90001 51.9 4.30001 51.5 4.10001C51 3.90001 50.4 4.10001 50.2 4.50001L49.2 6.50001C48.9 7.00001 49.1 7.60001 49.6 7.90001Z" fill="black"/>
<path d="M54 13C54.3 13 54.5 12.9 54.7 12.7L56.7 10.7C57.1 10.3 57.1 9.7 56.7 9.3C56.3 8.9 55.7 8.9 55.3 9.3L53.3 11.3C52.9 11.7 52.9 12.3 53.3 12.7C53.5 12.9 53.7 13 54 13Z" fill="black"/>
<path d="M56 20C56 20.6 56.4 21 57 21H59C59.6 21 60 20.6 60 20C60 19.4 59.6 19 59 19H57C56.4 19 56 19.4 56 20Z" fill="black"/>
<path d="M19.4 51.1C18.9 50.9 18.3 51.1 18.1 51.5L17.1 53.5C16.9 54 17.1 54.6 17.5 54.8C17.7 55 17.8 55 18 55C18.4 55 18.7 54.8 18.9 54.4L19.9 52.4C20.1 52 19.9 51.4 19.4 51.1Z" fill="black"/>
<path d="M12.6 44.1L10.6 45.1C10.1 45.3 9.89997 45.9 10.2 46.4C10.4 46.8 10.7 47 11.1 47C11.2 47 11.4 47 11.5 46.9L13.5 45.9C14 45.7 14.2 45.1 13.9 44.6C13.6 44.1 13 43.9 12.6 44.1Z" fill="black"/>
<path d="M27 54C26.4 54 26 54.4 26 55V57C26 57.6 26.4 58 27 58C27.6 58 28 57.6 28 57V55C28 54.4 27.6 54 27 54Z" fill="black"/>
</svg>
