<?xml version="1.0" encoding="UTF-8"?>
<!DOCTYPE svg PUBLIC "-//W3C//DTD SVG 1.1//EN" "http://www.w3.org/Graphics/SVG/1.1/DTD/svg11.dtd">
<!-- Creator: CorelDRAW -->
<svg xmlns="http://www.w3.org/2000/svg" xml:space="preserve" width="1.76666in" height="1.76666in" version="1.1" style="shape-rendering:geometricPrecision; text-rendering:geometricPrecision; image-rendering:optimizeQuality; fill-rule:evenodd; clip-rule:evenodd"
viewBox="0 0 1767 1767"
 xmlns:xlink="http://www.w3.org/1999/xlink">
 <defs>
  <style type="text/css">
   <![CDATA[
    .fil0 {fill:#000002}
   ]]>
  </style>
 </defs>
 <g id="Layer_x0020_1">
  <metadata id="CorelCorpID_0Corel-Layer"/>
  <path class="fil0" d="M1260 800l-292 0c-30,0 -30,-45 0,-45l292 0c30,0 30,45 0,45zm96 472l-297 0 0 95 153 0c61,0 111,43 111,95l0 71c0,13 -11,23 -23,23l-832 0c-13,0 -23,-10 -23,-23l0 -71c0,-52 50,-95 111,-95l153 0 0 -95 -369 0c-171,0 -309,-138 -309,-309l0 -276c0,-169 137,-306 305,-306l334 0 0 -62c0,-60 48,-108 108,-108l322 0c60,0 109,48 109,108l0 62 147 0c13,0 23,11 23,23l0 122 126 0c46,0 84,38 84,85l0 62 51 0c53,0 96,43 96,96l0 116c0,53 -43,96 -96,96l-51 0 0 61c0,47 -39,85 -86,85l-124 0 0 123c0,12 -10,22 -23,22zm-343 0l-258 0 0 118c0,12 -11,23 -23,23l-176 0c-36,0 -65,22 -65,49l0 49 786 0 0 -49c0,-27 -30,-49 -65,-49l-176 0c-13,0 -23,-11 -23,-23l0 -118zm-298 -891l448 0 0 -62c0,-35 -28,-63 -63,-63l-322 0c-34,0 -63,28 -63,63l0 62zm664 191l0 510c180,0 164,19 164,-124l0 -347c0,-22 -17,-39 -38,-39l-126 0zm-1043 -145c-143,0 -260,117 -260,260l0 276c0,146 118,264 264,264l49 0 0 -800 -53 0zm98 800l900 0 0 -800 -900 0 0 800zm1155 -509l0 218 51 0c28,0 51,-23 51,-51l0 -116c0,-28 -23,-51 -51,-51l-51 0zm-772 82l-198 0c-42,0 -76,-34 -76,-76l0 -135c0,-41 34,-75 76,-75l198 0c41,0 75,34 75,75l0 135c0,42 -34,76 -75,76zm-198 -241c-17,0 -31,14 -31,30l0 135c0,17 14,31 31,31l198 0c16,0 30,-14 30,-31l0 -135c0,-16 -14,-30 -30,-30l-198 0zm641 362l-747 0c-29,0 -29,-46 0,-46l747 0c30,0 30,46 0,46zm0 120l-747 0c-29,0 -29,-45 0,-45l747 0c30,0 30,45 0,45zm0 120l-747 0c-29,0 -29,-45 0,-45l747 0c30,0 30,45 0,45zm-1027 -98c-13,0 -23,-10 -23,-23l0 -426c0,-30 45,-30 45,0l0 426c0,13 -10,23 -22,23zm1027 -504l-292 0c-30,0 -30,-45 0,-45l292 0c30,0 30,45 0,45zm0 121l-292 0c-30,0 -30,-46 0,-46l292 0c30,0 30,46 0,46z"/>
 </g>
</svg>
