<?xml version="1.0" encoding="UTF-8" standalone="no"?> <svg width="64" height="64" viewBox="0 0 64 64" fill="none" xmlns="http://www.w3.org/2000/svg">
<path d="M45.34 20.64C44.4554 19.7473 43.4446 18.9893 42.34 18.39C33.97 13.74 23.34 20.13 23.4 29.7C23.27 39.27 34 45.66 42.32 41C49.79 37.15 51.38 26.49 45.34 20.64ZM47.08 29.7C47.08 30.04 47.08 30.37 47.08 30.7H38.64L44.57 36.63C44.1391 37.1253 43.6675 37.5835 43.16 38L37.23 32.07V40.5C36.5647 40.56 35.8953 40.56 35.23 40.5V32.11L29.3 38C28.7883 37.57 28.3164 37.0947 27.89 36.58L33.82 30.66H25.43C25.37 29.9947 25.37 29.3253 25.43 28.66H33.82L27.89 22.73C28.3163 22.2183 28.7883 21.7463 29.3 21.32L35.23 27.24V18.9C35.8948 18.83 36.5651 18.83 37.23 18.9V27.28L43.16 21.36C43.6717 21.7863 44.1436 22.2583 44.57 22.77L38.64 28.7H47C47.06 29 47.08 29.36 47.08 29.7V29.7Z" fill="black"/>
<path d="M54 12.34C31.43 -8.94001 -1.42 19.29 16.71 45C13.9476 44.3893 11.2337 43.5771 8.59 42.57C8.62656 42.2686 8.59919 41.9629 8.50967 41.6729C8.42015 41.3828 8.27049 41.1149 8.07046 40.8865C7.87042 40.6582 7.6245 40.4746 7.34874 40.3477C7.07297 40.2208 6.77355 40.1534 6.47 40.15H5.12C4.55947 40.15 4.02175 40.372 3.62446 40.7674C3.22717 41.1628 3.00264 41.6995 3 42.26V56.34C3 56.9022 3.22336 57.4415 3.62093 57.8391C4.01851 58.2366 4.55774 58.46 5.12 58.46H6.47C6.96394 58.4591 7.44207 58.2858 7.82183 57.9699C8.20159 57.654 8.45913 57.2155 8.55 56.73C14.268 58.1209 20.1174 58.9019 26 59.06C36 59.06 46.76 55.43 53.68 47.77C55.2827 46.0703 56.6301 44.1469 57.68 42.06V42.06V42.01C63.08 32.72 61.8 20 54 12.34ZM6.47 56.46H5.12C5.08817 56.46 5.05765 56.4473 5.03515 56.4248C5.01264 56.4023 5 56.3718 5 56.34V42.26C5 42.2282 5.01264 42.1976 5.03515 42.1751C5.05765 42.1526 5.08817 42.14 5.12 42.14H6.47C6.50183 42.14 6.53235 42.1526 6.55485 42.1751C6.57736 42.1976 6.59 42.2282 6.59 42.26V56.34C6.59 56.3718 6.57736 56.4023 6.55485 56.4248C6.53235 56.4473 6.50183 56.46 6.47 56.46V56.46ZM36.23 44.35C32.3503 44.3316 28.6346 42.7822 25.8912 40.0388C23.1478 37.2953 21.5984 33.5797 21.58 29.7C22.39 10.27 50.08 10.27 50.88 29.7C50.8774 33.5846 49.333 37.3093 46.5862 40.0562C43.8394 42.803 40.1146 44.3473 36.23 44.35V44.35Z" fill="black"/>
</svg>
