<?xml version="1.0" encoding="UTF-8" standalone="no"?> <svg xmlns="http://www.w3.org/2000/svg" viewBox="0 0 64 64"><g id="Layer_52" data-name="Layer 52"><path d="M49.92,8.62H26.38a23.38,23.38,0,0,0,0,46.76H49.92a1,1,0,0,0,1-1V42.07a1,1,0,0,0-1-1H26.38a9.07,9.07,0,0,1,0-18.14H49.92a1,1,0,0,0,1-1V9.62A1,1,0,0,0,49.92,8.62Zm-1,44.76H42.11V43.07h6.81ZM15.31,32A11.08,11.08,0,0,0,26.38,43.07H40.11V53.38H26.38a21.38,21.38,0,0,1,0-42.76H40.11V20.93H26.38A11.08,11.08,0,0,0,15.31,32Zm26.8-11.07V10.62h6.81V20.93Z"/><path d="M54.73,21a1,1,0,0,0,1.41,0l4.57-4.56A1,1,0,0,0,60,14.77H57.85l2.86-2.85a1,1,0,0,0-1.42-1.42l-4.56,4.57a1,1,0,0,0,.71,1.7h2.15l-2.86,2.86A1,1,0,0,0,54.73,21Z"/><path d="M60.71,43a1,1,0,0,0-1.42,0l-4.56,4.56a1,1,0,0,0,.71,1.71h2.15l-2.86,2.85a1,1,0,0,0,0,1.42,1,1,0,0,0,1.41,0l4.57-4.57a1,1,0,0,0-.71-1.7H57.85l2.86-2.86A1,1,0,0,0,60.71,43Z"/></g></svg>