<?xml version="1.0" encoding="UTF-8" standalone="no"?> <svg id="Layer_1" data-name="Layer 1" xmlns="http://www.w3.org/2000/svg" viewBox="0 0 64 64"><title>send packet_2</title><path d="M32,40a5,5,0,1,1,5-5A5,5,0,0,1,32,40Zm0-8a3,3,0,1,0,3,3A3,3,0,0,0,32,32Z"/><path d="M32,52c-2.41,0-3.67-3.52-3.67-7s1.26-7,3.67-7,3.67,3.52,3.67,7S34.41,52,32,52Zm0-12c-.57,0-1.67,2-1.67,5s1.1,5,1.67,5,1.67-2,1.67-5S32.57,40,32,40Z"/><path d="M56,61H8a1,1,0,0,1-1-1V20.87a1,1,0,0,1,.12-.48l6-10.87A1,1,0,0,1,14,9H50a1,1,0,0,1,.88.52l6,10.87a1,1,0,0,1,.12.48V60A1,1,0,0,1,56,61ZM9,59H55V21.13L49.41,11H14.59L9,21.13Z"/><path d="M50,11H14a1,1,0,0,1-1-1V4a1,1,0,0,1,1-1H50a1,1,0,0,1,1,1v6A1,1,0,0,1,50,11ZM15,9H49V5H15Z"/><path d="M42,38.67c-3.48,0-7-1.26-7-3.67s3.52-3.67,7-3.67,7,1.26,7,3.67S45.48,38.67,42,38.67Zm0-5.34c-3,0-5,1.1-5,1.67s2,1.67,5,1.67,5-1.1,5-1.67S45.05,33.33,42,33.33Z"/><path d="M36,33.59a2.49,2.49,0,0,1-1.83-.71c-1.7-1.7-.1-5.08,2.36-7.54a11.82,11.82,0,0,1,3.9-2.68c2.09-.8,3.18-.14,3.64.32h0c.46.46,1.12,1.55.32,3.64a11.82,11.82,0,0,1-2.68,3.9C39.91,32.27,37.7,33.59,36,33.59Zm6.23-9.3a3.07,3.07,0,0,0-1.08.24,9.85,9.85,0,0,0-3.21,2.22c-2.16,2.16-2.76,4.31-2.35,4.71s2.55-.19,4.71-2.35a9.85,9.85,0,0,0,2.22-3.21c.34-.87.27-1.38.14-1.51h0A.67.67,0,0,0,42.18,24.29Z"/><path d="M32,32c-2.41,0-3.67-3.52-3.67-7s1.26-7,3.67-7,3.67,3.52,3.67,7S34.41,32,32,32Zm0-12c-.57,0-1.67,1.95-1.67,5s1.1,5,1.67,5,1.67-1.95,1.67-5S32.57,20,32,20Z"/><path d="M28,33.57a5.05,5.05,0,0,1-1.8-.37,11.82,11.82,0,0,1-3.9-2.68,11.82,11.82,0,0,1-2.68-3.9c-.8-2.09-.14-3.18.32-3.64h0c.46-.46,1.55-1.12,3.64-.32a11.82,11.82,0,0,1,3.9,2.68,11.82,11.82,0,0,1,2.68,3.9c.8,2.09.14,3.18-.32,3.64A2.54,2.54,0,0,1,28,33.57Zm-6.22-9.28a.67.67,0,0,0-.43.1h0c-.13.13-.2.64.14,1.51a9.85,9.85,0,0,0,2.22,3.21A9.92,9.92,0,0,0,27,31.33c.88.33,1.38.26,1.51.13s.2-.63-.13-1.51a9.92,9.92,0,0,0-2.22-3.2,9.85,9.85,0,0,0-3.21-2.22A3.07,3.07,0,0,0,21.82,24.29Zm-1.13-.6h0Z"/><path d="M22,38.67c-3.48,0-7-1.26-7-3.67s3.52-3.67,7-3.67,7,1.26,7,3.67S25.48,38.67,22,38.67Zm0-5.34c-3.05,0-5,1.1-5,1.67s1.95,1.67,5,1.67,5-1.1,5-1.67S25.05,33.33,22,33.33Z"/><path d="M21.82,47.72A2.5,2.5,0,0,1,20,47h0c-.46-.46-1.12-1.55-.32-3.64a13,13,0,0,1,6.58-6.58c2.09-.8,3.18-.14,3.64.32s1.12,1.55.32,3.64a11.82,11.82,0,0,1-2.68,3.9,11.82,11.82,0,0,1-3.9,2.68A5.14,5.14,0,0,1,21.82,47.72ZM28,38.43a3.12,3.12,0,0,0-1.09.24,9.92,9.92,0,0,0-3.2,2.22,9.85,9.85,0,0,0-2.22,3.21c-.34.87-.27,1.38-.14,1.51h0c.13.13.64.2,1.51-.14a9.85,9.85,0,0,0,3.21-2.22,9.92,9.92,0,0,0,2.22-3.2c.33-.88.26-1.38.13-1.51A.62.62,0,0,0,28,38.43Z"/><path d="M42.18,47.72a5.14,5.14,0,0,1-1.8-.38,11.82,11.82,0,0,1-3.9-2.68c-2.46-2.46-4.06-5.84-2.36-7.54s5.09-.1,7.54,2.36a11.82,11.82,0,0,1,2.68,3.9c.8,2.09.14,3.18-.32,3.64h0A2.5,2.5,0,0,1,42.18,47.72ZM36,38.42a.54.54,0,0,0-.41.12c-.41.4.19,2.55,2.35,4.71a9.85,9.85,0,0,0,3.21,2.22c.87.34,1.38.27,1.51.14h0c.13-.13.2-.64-.14-1.51a9.85,9.85,0,0,0-2.22-3.21C38.5,39.15,36.76,38.42,36,38.42Z"/></svg>