<?xml version="1.0" encoding="UTF-8"?>
<!DOCTYPE svg PUBLIC "-//W3C//DTD SVG 1.1//EN" "http://www.w3.org/Graphics/SVG/1.1/DTD/svg11.dtd">
<!-- Creator: CorelDRAW -->
<svg xmlns="http://www.w3.org/2000/svg" xml:space="preserve" width="1.70666in" height="1.70666in" version="1.1" style="shape-rendering:geometricPrecision; text-rendering:geometricPrecision; image-rendering:optimizeQuality; fill-rule:evenodd; clip-rule:evenodd"
viewBox="0 0 1707 1707"
 xmlns:xlink="http://www.w3.org/1999/xlink">
 <defs>
  <style type="text/css">
   <![CDATA[
    .fil0 {fill:black}
   ]]>
  </style>
 </defs>
 <g id="Layer_x0020_1">
  <metadata id="CorelCorpID_0Corel-Layer"/>
  <g id="_340829320">
   <g>
    <g>
     <path class="fil0" d="M893 1548c-25,0 -51,-9 -70,-27l-620 -620c-39,-41 -39,-104 0,-142 0,0 0,0 0,0l693 -693c39,-39 103,-39 142,0l620 620c38,39 38,102 0,141l-694 694c-18,18 -44,27 -71,27zm-656 -756c-19,20 -19,53 0,74l620 620c21,19 53,19 74,0l693 -694c21,-20 21,-52 0,-73l-620 -620c-20,-21 -52,-21 -73,0l-694 693 0 0z"/>
    </g>
    <g>
     <path class="fil0" d="M549 1457c-5,0 -12,-3 -16,-7l-279 -279c-4,-4 -7,-11 -7,-17 0,-5 3,-12 7,-16l111 -111c10,-10 25,-10 35,0 9,10 9,25 0,35l-95 94 244 244 95 -94c9,-10 25,-10 34,0 10,9 10,25 0,34l-111 111c-5,4 -11,6 -18,6z"/>
    </g>
    <g>
     <path class="fil0" d="M1468 553c-6,0 -13,-3 -17,-7 -10,-10 -10,-25 0,-35l53 -53 -251 -249 -52 51c-9,10 -25,10 -34,0 -10,-10 -10,-25 0,-35l69 -69c10,-10 25,-10 35,0l285 284c4,4 7,11 7,17 0,7 -3,12 -7,17l-69 69c-7,7 -14,10 -19,10z"/>
    </g>
    <g>
     <path class="fil0" d="M1468 412c-6,0 -13,-2 -17,-6 -10,-10 -10,-25 0,-35l44 -45c7,-6 11,-18 11,-27 0,-10 -4,-20 -11,-27l-59 -59c-7,-7 -17,-11 -27,-11 -9,0 -21,4 -27,11l-45 44c-10,10 -25,10 -34,0 -10,-10 -10,-25 0,-35l44 -44c17,-17 39,-26 62,-26 0,0 0,0 2,0 23,0 44,9 61,26l59 60c17,15 25,37 27,59 0,24 -9,46 -27,63l-44 44c-7,7 -14,8 -19,8z"/>
    </g>
    <g>
     <path class="fil0" d="M276 1701c-22,0 -44,-8 -61,-25l-188 -190c-17,-15 -27,-38 -27,-61 0,-24 10,-44 27,-61l104 -104c34,-33 90,-33 123,0l189 190c16,15 26,37 26,61 0,23 -10,46 -26,61l-104 104c-18,17 -41,25 -63,25zm-84 -419c-10,0 -21,4 -28,11l-104 104c0,0 0,0 0,0 -7,7 -11,17 -11,27 0,9 4,19 11,26l188 190c16,15 39,14 56,0l104 -104c8,-7 11,-17 11,-27 0,-9 -4,-19 -11,-26l-189 -190c-8,-7 -18,-11 -27,-11zm-149 99l0 0 0 0z"/>
    </g>
    <g>
     <path class="fil0" d="M1493 982c-6,0 -13,-2 -17,-6l-728 -727c-10,-10 -10,-25 0,-35 9,-10 25,-10 34,0l727 728c10,10 10,25 0,35 -4,4 -11,5 -16,5zm97 -98c-6,0 -13,-3 -17,-7l-727 -728c-9,-10 -9,-25 0,-35 10,-9 25,-9 35,0l727 728c9,10 9,25 0,35 -6,4 -11,7 -18,7z"/>
    </g>
    <g>
     <path class="fil0" d="M95 1546c-6,0 -13,-3 -17,-7 -10,-10 -10,-25 0,-35l272 -272c9,-10 25,-10 34,0 10,10 10,25 0,35l-271 272c-6,4 -13,7 -18,7z"/>
    </g>
    <g>
     <path class="fil0" d="M185 1634c-6,0 -13,-2 -17,-7 -10,-9 -10,-25 0,-34l272 -272c10,-10 25,-10 35,0 9,10 9,25 0,35l-272 271c-6,6 -13,7 -18,7z"/>
    </g>
    <g>
     <path class="fil0" d="M963 1293c-10,0 -18,-5 -22,-15l-136 -322 -79 79c-6,6 -16,9 -24,7 -8,-3 -15,-8 -17,-17l-122 -414c-2,-9 0,-18 6,-24l127 -127c6,-6 16,-9 24,-7 8,2 15,8 17,16l66 249 85 -85c7,-7 16,-8 25,-6 8,3 15,12 16,21l59 619c1,12 -7,23 -18,26 -3,-1 -4,0 -7,0zm-150 -405c1,0 3,0 4,0 8,2 15,7 18,14l89 211 -39 -411 -78 78c-5,6 -15,8 -23,7 -8,-3 -15,-8 -17,-17l-66 -248 -88 87 107 361 76 -76c4,-3 11,-6 17,-6z"/>
    </g>
    <g>
     <path class="fil0" d="M1082 167c-6,0 -12,-3 -17,-7 -9,-10 -9,-25 0,-35l113 -112c9,-10 25,-10 34,0 10,10 10,25 0,35l-112 112c-6,4 -12,7 -18,7z"/>
    </g>
    <g>
     <path class="fil0" d="M1569 655c-6,0 -13,-3 -17,-7 -10,-9 -10,-25 0,-34l112 -113c10,-9 25,-9 35,0 10,10 10,25 0,35l-112 112c-6,4 -11,7 -18,7z"/>
    </g>
    <g>
     <path class="fil0" d="M397 926c-26,0 -51,-11 -71,-30 -39,-38 -39,-102 0,-141 0,0 0,0 0,0 39,-39 103,-39 142,0 19,18 29,43 29,71 0,28 -11,52 -31,71 -16,18 -43,29 -69,29zm-36 -136c-20,19 -20,52 0,72 21,21 53,21 73,0 10,-10 16,-22 16,-36 0,-14 -6,-27 -16,-36 -20,-21 -54,-21 -73,0l0 0z"/>
    </g>
    <g>
     <path class="fil0" d="M1268 1068c-25,0 -51,-9 -71,-27 -39,-39 -39,-103 0,-143 0,0 0,0 0,0 20,-20 44,-29 71,-29 26,0 53,11 71,29 37,39 37,103 0,141 -18,20 -45,29 -71,29zm-36 -135c-21,20 -21,52 0,73 21,19 52,19 73,0 20,-19 20,-53 0,-73 -9,-10 -22,-16 -36,-16 -14,0 -28,4 -37,16l0 0z"/>
    </g>
   </g>
  </g>
 </g>
</svg>
